<svg 
 class="fill-current" width="100%" height="100%" viewBox="0 0 512.000000 512.000000"
>
<g transform="translate(0.000000,512.000000) scale(0.100000,-0.100000)"
fill="#000000" stroke="none">
<path d="M3369 5085 c-706 -110 -1257 -541 -1458 -1140 -43 -130 -61 -247 -61
-405 0 -349 104 -622 355 -926 l25 -31 -117 -22 c-201 -37 -385 -94 -595 -183
l-97 -41 -57 43 c-148 115 -232 248 -378 602 -47 114 -127 162 -226 138 -60
-14 -107 -54 -211 -178 -284 -339 -472 -784 -535 -1262 -20 -157 -15 -465 11
-580 26 -119 73 -247 130 -358 185 -356 501 -609 885 -708 103 -27 111 -27
465 -30 332 -3 355 -2 295 11 -327 72 -576 458 -630 975 -21 201 -9 262 59
307 63 42 155 22 197 -42 13 -19 20 -61 26 -148 16 -231 54 -389 131 -546 50
-100 146 -209 215 -243 l47 -23 585 0 585 0 49 25 c75 38 160 138 217 256 67
137 106 294 120 483 12 164 24 202 78 238 68 46 159 20 199 -58 22 -41 23 -51
17 -154 -25 -426 -179 -788 -409 -962 -74 -56 -145 -90 -228 -108 -57 -13 -28
-14 322 -11 380 2 386 3 488 29 517 134 905 544 1019 1077 26 123 26 555 0
683 -62 306 -206 578 -416 787 -151 150 -302 230 -491 259 -179 28 -171 25
-277 119 -458 406 -685 616 -703 652 -62 122 34 275 174 274 64 0 91 -15 190
-101 116 -101 220 -176 305 -221 121 -64 116 -65 117 26 2 102 39 226 111 371
l57 113 -52 45 c-63 55 -82 88 -82 145 0 65 46 122 108 134 56 11 95 -3 156
-58 41 -36 62 -49 71 -42 173 127 324 194 436 194 27 0 49 3 49 6 0 14 -92
144 -147 206 -182 208 -407 339 -662 383 -103 18 -344 18 -462 0z"/>
<path d="M4508 4177 c-87 -37 -148 -80 -219 -154 -103 -107 -180 -255 -210
-400 -12 -57 -11 -67 7 -110 19 -47 23 -50 339 -247 311 -193 321 -199 382
-204 56 -4 70 -1 127 27 69 34 131 95 162 159 11 21 20 68 22 109 l4 73 -187
354 c-104 197 -200 366 -216 382 -42 40 -130 45 -211 11z"/>
</g>
</svg>
